<?xml version="1.0" encoding="UTF-8"?>
<svg xmlns="http://www.w3.org/2000/svg" viewBox="0 0 460.77 799.89">
  <defs>
    <style>
      .cls-1 {
        fill: #616360;
      }

      .cls-1, .cls-2, .cls-3, .cls-4, .cls-5, .cls-6, .cls-7 {
        stroke: #000;
        stroke-linecap: round;
        stroke-linejoin: round;
      }

      .cls-2 {
        fill: #2e9925;
      }

      .cls-2, .cls-3 {
        opacity: .83;
      }

      .cls-8 {
        fill: #fff;
      }

      .cls-9 {
        fill: #db8f4f;
      }

      .cls-3 {
        fill: #1ba514;
      }

      .cls-4 {
        fill: #a6dda2;
      }

      .cls-5 {
        fill: none;
      }

      .cls-6 {
        fill: #848984;
      }

      .cls-10 {
        fill: #605858;
      }

      .cls-11 {
        fill: #d64c4c;
      }

      .cls-12 {
        fill: #1d0073;
      }

      .cls-13 {
        fill: #f0f;
      }

      .cls-7 {
        fill: #737573;
      }

      .cls-14 {
        fill: #f0ff00;
      }
    </style>
  </defs>
  <g id="prato">
    <path class="cls-2" d="M45.35,323.66c-.02.21-.05.42-.07.65-.04.41-.08.85-.12,1.29,3.91,1.21,5.99,1.26,7.71,1.23,1.93-.04,3.42-.19,5.18-.74,1.76-.55,3.79-1.49,5.94-1.54s4.41.79,6.81.79,4.94-.84,7.94-.79,6.47.99,9.94,1.46,6.96.47,11.16.47h12.81c3.69,0,6.15,0,9.48.03,3.33.03,7.53.1,6.28,1.94-3.41,1.77-5.97,1.8-7.76,2.04s-2.8.68-3.37,1.76c-.57,1.08-.7,2.78-1.17,4.4-.47,1.61-1.3,3.13-1.83,4.81-.54,1.68-.79,3.51-1.83,4.71-1.04,1.2-2.88,1.77-4.37,2.47-1.49.7-2.63,1.52-3.64,1.9-1.01.38-1.9.32-3.23.38-1.33.06-3.1.25-4.37.73-1.27.47-2.02,1.23-2.63,1.14s-1.04-1.04-2.02-1.46c-.98-.41-2.5-.28-3.67-.09-1.17.19-1.99.44-2.5.32-.51-.13-.7-.63-1.3-1.08s-1.61-.82-2.94-.85c-1.33-.03-2.97.28-3.83.03s-.92-1.08-1.52-2.09-1.74-2.21-2.5-2.91-1.14-.89-1.71-1.01c-.57-.13-1.33-.19-1.8-.35-.47-.16-.66-.41-.76-1.04-.09-.63-.09-1.64,0-2.72.09-1.08.28-2.21.63-2.88.35-.66.85-.85,1.52-1.04.66-.19,1.49-.38,2.28-.47.79-.09,1.55-.09,2.4-.22s1.8-.38,2.37-1.36c.57-.98.76-2.69-1.9-5.35-6.45,0-9.87,1.61-12.37,2.74-2.5,1.12-4.08,1.76-5.88,2.55-1.8.79-3.83,1.74-6.26,1.93-1.95.15-4.17-.18-8.6-3.85-1.02,1.52-2.92,1.52-4.68,2.05-1.78.53-3.42,1.59-5.54,2.84-2.12,1.25-4.72,2.7-6.51,3.04-1.78.34-2.75-.43-3.66-.87s-1.78-.53-4.03,0c-2.1.5-5.42,1.55-13.47,1.44,2.57,24.01,5.71,49.07,8.21,65.86,3.47,23.3,5.71,30.69,8.18,35.39,2.46,4.7,5.15,6.72,7.62,7.5s4.7.34,9.52-.67c4.82-1.01,12.21-2.58,17.36-3.36,5.15-.78,8.06-.78,10.08-2.02,2.02-1.23,3.14-3.7,5.04-4.14s4.59,1.12,6.72,1.46c2.13.34,3.7-.56,4.48-1.68.78-1.12.78-2.46,1.01-3.81.22-1.34.67-2.69,2.58-4.93,1.9-2.24,5.26-5.38,3.36-11.09-1.9-5.71-9.07-14-14.22-19.04s-8.29-6.83-10.58-10.14c-2.3-3.31-3.75-8.14-2.97-11,.78-2.87,3.81-3.77,7-6,3.19-2.23,6.55-5.79,9.35-6.94,2.8-1.14,5.04.13,6.94,1.68s3.47,3.37,3.92,5.82c.45,2.44-.22,5.5.22,7.25.45,1.75,2.02,2.2,3.92,3.21,1.9,1.01,4.14,2.58,5.71,2.58s2.46-1.57,2.91-3.47c.45-1.9.45-4.14,2.24-5.26,1.79-1.12,5.38-1.12,7.17.78,1.79,1.9,1.79,5.71,2.58,9.63.78,3.92,2.35,7.95,5.94,9.41,3.58,1.46,9.18.34,10.42,1.23,1.23.9-1.9,3.81-5.82,5.71s-8.62,2.8-11.98,6.05-5.38,8.85-4.68,13.38,4.11,7.99,6.03,9.71c1.93,1.73,2.38,1.73,4.06.94,1.68-.78,4.59-2.35,6.13-4.14,1.54-1.79,1.72-3.8,3.6-6.25s5.46-5.32,8.71-5.26c3.25.06,6.16,3.06,10.08,7.48,3.92,4.42,8.85,10.26,12.1,11.49s4.82-2.15,7.06-4.17c2.24-2.02,5.15-2.7,5.71-1.24.56,1.46-1.23,5.04-2.13,6.94-.9,1.9-.9,2.13-1.46,3.36s-1.68,3.47-1.9,5.26c-.22,1.79.45,3.14,2.46,4.93s5.38,4.03,7.73,4.59,3.7-.56,4.93-1.57c1.23-1.01,2.35-1.9,2.91-2.8.56-.9.56-1.79,0-3.14s-1.68-3.14-3.21-4.93c-1.53-1.79-3.47-3.58-3.47-5.49s1.94-3.92,4.03-6.02c2.09-2.1,4.33-4.28,17.99-.47,13.66,3.81,38.75,13.61,52.19,20.19,13.44,6.58,15.23,9.94,20.5,13.86,5.26,3.92,14,8.4,21.62,10.98s14.11,3.25,17.68,6.72c3.57,3.47,4.22,9.74,2.43,16.02-1.79,6.27-6.02,12.54-11.16,18.57-5.14,6.03-11.19,11.81-15.89,14.39-4.7,2.58-8.06,1.95-12.32,1.5s-9.41-.74-16.13-1.9c-6.72-1.15-15.01-3.18-21.28-5.28-6.27-2.1-10.53-4.28-15.12-5.03-4.59-.75-9.52-.08-12.43,1.82s-3.81,5.04-2.69,9.63,4.26,10.64,9.3,19.49c5.04,8.85,11.98,20.5,17.36,26.66,5.38,6.16,9.18,6.83,14.11,1.29,3.84-4.31,8.36-12.4,13.98-15.87-.15,4.19-2.27,7.31-5.36,10.96-3.42,4.05-8.03,8.76-10.39,11.43-2.36,2.66-2.46,3.28-2.51,4.25-.05.97-.05,2.31.05,3.02.1.72.31.82.95.87.64.05,1.72.05,3.05-.77,1.33-.82,2.92-2.46,5.28-5.25,2.36-2.79,5.48-6.74,8.93-11.06,2.92-3.66,6.07-7.58,9.13-10.86,8.87,3.55,16.1,10.34,22.25,15.8,8.18,7.26,14.45,12.19,18.48,14.32,4.03,2.13,5.82,1.46,9.52-2.46s9.3-11.09,19.6-28.22c10.3-17.14,25.31-44.24,32.7-59.36,7.39-15.12,7.17-18.26,4.82-20.72-2.35-2.46-6.83-4.26-12.54-6.61-5.71-2.35-12.66-5.26-16.13-7.73-3.47-2.46-3.47-4.48-2.13-8.74,1.34-4.26,4.03-10.75,6.94-18.03,2.91-7.28,6.05-15.34,8.62-22.4s4.59-13.1,4.93-17.7c.34-4.59-1.01-7.73-3.14-9.52-2.13-1.79-5.04-2.24-8.13-3.58-3.09-1.34-6.36-3.58-6.7-6.72-.3-2.78,1.71-6.27,4.64-11.48-5.71-.91-6.24-3.86-6.42-6.25-.22-2.85.07-4.87,1.26-6.66,1.19-1.78,3.29-3.33,5.55-3.76,2.27-.43,4.7.24,6.11-.53,1.41-.77,1.8-2.99.58-5.4-1.22-2.41-4.04-5.01-4.57-7.95-.53-2.94,1.23-6.22,2.45-9.02,1.22-2.8,1.89-5.11,3.24-6.92,1.22-1.63,2.98-2.85,11.48-1,1.34-2.81,2.79-4.37,4.5-4.88,2.24-.67,4.93.45,11.54-17.14,6.61-17.58,17.14-53.87,22.4-72.91,5.26-19.04,5.26-20.83,5.04-22.74-.22-1.9-.67-3.92-1.01-5.71-.34-1.79-.56-3.36-.45-4.93.11-1.57.56-3.14,2.02-3.7,1.46-.56,3.92-.11,11.09-18.7,7.17-18.59,19.04-56.22,25.2-75.93,6.16-19.71,6.61-21.5,4.7-24.3s-6.16-6.61-18.82-14.67c-12.66-8.06-33.71-20.38-54.54-30.02-20.83-9.63-41.44-16.58-63.39-21.73-21.95-5.15-45.25-8.51-64.85-9.52-7.78-.4-14.98-.43-21.89-.12-2.69.17-5.39.35-8.08.52-7.56.64-14.9,1.68-22.44,3.08-16.91,3.14-34.83,8.06-49.39,13.1s-25.76,10.19-36.85,16.8c-11.09,6.61-22.06,14.67-32.14,23.63-10.08,8.96-19.26,18.82-28.34,29.79s-18.03,23.07-24.98,34.61-11.87,22.51-16.02,34.27c-4.14,11.76-7.5,24.3-10.42,38.41-2.91,14.11-5.38,29.79-6.27,48.27-.49,10.15-.51,21.16.02,34.02,4.05.49,6.24,1.5,7.94,1.85,2.46.51,3.9-.36,5.21.89,1.3,1.25,2.46,4.63,2.12,7.28-.34,2.65-2.17,4.58-3.91,5.69-1.74,1.11-3.37,1.4-5.11,2.12-.5.21-1.01.45-1.48.73"/>
    <path class="cls-2" d="M180.53,504.69c-.16,1.8-2.26,3.2-3.67,4.61-1.41,1.41-2.11,2.81-3.28,3.9-1.17,1.09-2.81,1.87-4.22,3.09-1.41,1.21-2.58,2.85-3.12,4.22-.55,1.37-.47,2.46.47,3.44.94.98,2.73,1.84,3.55,3.44s.66,3.94.7,5.27c.04,1.33.27,1.64,1.21,2.11.94.47,2.58,1.09,4.1,1.6,1.52.51,2.93.9,3.91.94.98.04,1.52-.27,2.58-1.21,1.05-.94,2.62-2.5,4.33-3.98,1.72-1.48,3.59-2.89,4.92-4.3,1.33-1.41,2.11-2.81,3.32-4.22,1.21-1.41,2.85-2.81,4.57-3.01,1.72-.2,3.51.82,5.12,1.33,1.6.51,3.01.51,2.85-.16-.16-.66-1.87-1.99-3.75-3.67-1.87-1.68-3.91-3.71-6.01-5.47-2.11-1.76-4.3-3.24-19.96-17.18-15.66-13.94-44.79-40.34-59.86-53.62-15.07-13.28-16.09-13.43-16.64-13.32-.55.12-.62.51-.74,1.21-.12.7-.27,1.72.7,2.81.98,1.09,3.09,2.27,6.37,5.04,3.28,2.77,7.73,7.15,17.77,15.97,10.04,8.83,25.66,22.1,34.25,29.52,8.59,7.42,10.15,8.98,11.83,10.58s3.48,3.24,5.27,5.15,3.59,4.1,3.44,5.9Z"/>
    <path class="cls-2" d="M29,465.57c.72-3.52,2.84-7.95,4.29-9.69,1.45-1.74,2.22-.77,2.94-.1.72.67,1.4,1.06,2.46,1.83,1.06.77,2.51,1.93,3.28,3.28.77,1.35.87,2.89.67,5.21-.19,2.31-.67,5.4-.54,8.34.14,2.94.9,5.73.95,9.78s-.62,9.36-.61,16.45c0,7.09.68,15.96,1.98,22.42,1.3,6.46,3.23,10.51,4.87,13.93,1.64,3.42,2.99,6.22,6.27,9.21s8.49,6.17,12.44,8.87c3.95,2.7,6.65,4.92,8.77,5.98,2.12,1.06,3.66.96,5.16,1.25,1.49.29,2.94.96,4.63,2.12,1.69,1.16,3.62,2.8,5.64,4.19,2.02,1.4,4.15,2.56,5.98,3.57,1.83,1.01,3.37,1.88,5.45,2.8s4.68,1.88,6.32,2.56c1.64.68,2.31,1.06,3.62,1.25,1.3.19,3.23.19,4.58.24,1.35.05,2.12.14,3.42.68,1.3.53,3.13,1.49,5.25,2.46,2.12.96,4.53,1.93,5.83,3.04s1.49,2.36-.24,4c-1.74,1.64-5.4,3.66-6.61,5.45-1.21,1.78.05,3.33-1.11,3.18-1.16-.14-4.72-1.98-16.2-7.91-11.47-5.93-30.86-15.96-40.79-21.79-9.93-5.83-10.41-7.47-10.65-8.68-.24-1.21-.24-1.98-.77-4.15-.53-2.17-1.59-5.74-2.8-5.83-1.21-.1-2.56,3.28-4.58,4.48s-4.72.24-6.56-.82c-1.83-1.06-2.8-2.22-4.39-4.97-1.59-2.75-3.81-7.09-4.82-9.93-1.01-2.84-.82-4.19.43-6.07,1.25-1.88,3.57-4.29,5.32-5.72,1.76-1.42,2.96-1.86,2.28-4.42-.67-2.56-3.22-7.23-4.74-11.11s-2-6.96-2.61-10.95c-.61-3.99-1.35-8.88-2.07-13.32-.72-4.44-1.43-8.41-2.12-11.7-.69-3.29-1.37-5.89-.64-9.41Z"/>
    <path class="cls-2" d="M54.99,571.59c-1.44.98-3.24,3.71-4.49,5.47-1.25,1.76-1.95,2.54-2.11,3.48-.16.94.23,2.03,1.37,5.51,1.13,3.48,3.01,9.33,4.3,13.12,1.29,3.79,1.99,5.51,2.81,8.71.82,3.2,1.76,7.89,2.42,11.83.66,3.94,1.05,7.15,2.46,10.19,1.41,3.05,3.83,5.94,7.15,8.32,3.32,2.38,7.54,4.26,9.84,5.43,2.3,1.17,2.69,1.64,2.66,2.77-.04,1.13-.51,2.93.35,4.22.86,1.29,3.05,2.07,5.39,3.87s4.84,4.61,6.48,6.6,2.42,3.16,3.63,4.76c1.21,1.6,2.85,3.63,5.27,4.49,2.42.86,5.62.55,9.18,2.11,3.55,1.56,7.46,5,9.68,7.34s2.77,3.59,3.36,5.35c.59,1.76,1.21,4.02.59,5.74-.62,1.72-2.5,2.89-4.3,4.14s-3.51,2.58-5.9,3.51c-2.38.94-5.43,1.48-6.95,3.2-1.52,1.72-1.52,4.61-.86,6.87.66,2.27,1.99,3.91,1.95,5.35-.04,1.44-1.44,2.69-3.48,3.71s-4.69,1.8-6.91,4.22-4.02,6.48-5.62,9.02c-1.6,2.54-3.01,3.55-3.94,5.55-.94,1.99-1.41,4.96.59,7.07s6.44,3.36,10.93,4.11,9.02,1,10.58,3.38c1.56,2.38.16,6.9-2.07,10.36-2.23,3.47-5.27,5.89-7.34,6.4-2.07.51-3.16-.9-4.84-1.09-1.68-.2-3.94.82-4.22,2.81s1.44,4.96.78,6.68c-.66,1.72-3.71,2.19-6.21,3.4-2.5,1.21-4.45,3.16-5.31,5.51s-.62,5.08,0,7.42c.62,2.34,1.64,4.3,4.92,5.51s8.83,1.68,14.14,1.21c5.31-.47,10.39-1.87,13.51-4.45s4.3-6.33,5.51-9.88,2.46-6.91,5.78-10.54c3.32-3.63,8.71-7.54,12.69-10.93,3.98-3.4,6.56-6.29,7.85-8.51,1.29-2.23,1.29-3.79,2.46-4.76,1.17-.98,3.51-1.37,5.35-3.36,1.84-1.99,3.16-5.58,3.12-7.97-.04-2.38-1.44-3.55,0-4.73,1.44-1.17,5.74-2.34,7.46-5.39,1.72-3.05.86-7.97.98-11.29.12-3.32,1.21-5.04,3.75-7.81,2.54-2.77,6.52-6.6,8.12-8.75,1.6-2.15.82-2.62-1.76-4.96s-6.95-6.56-10.15-8.86c-3.2-2.3-5.23-2.69-8.71-4.8s-8.4-5.94-11.6-8.83c-3.2-2.89-4.69-4.84-6.64-6.99-1.95-2.15-4.37-4.49-7.07-6.87-2.69-2.38-5.66-4.8-7.77-7.15-2.11-2.34-3.35-4.61-3.03-7.11s2.18-5.23,3.89-7.69c1.71-2.46,3.28-4.65,3.78-7.85.51-3.2-.04-7.42.59-11.72.62-4.3,2.42-8.67,2.15-10.86-.27-2.19-2.62-2.19-4.53-1.8-1.91.39-3.4,1.17-5.43,1.05-2.03-.12-4.61-1.13-6.01-2.34-1.41-1.21-1.64-2.62-2.23-3.67-.59-1.05-1.52-1.76-3.05-2.15-1.52-.39-3.63-.47-4.76-.35s-1.29.43-1.95-.12-1.84-1.95-3.12-2.54c-1.29-.59-2.69-.35-4.26-.43s-3.28-.47-4.45-1.48c-1.17-1.02-1.8-2.66-2.81-3.71-1.02-1.05-2.42-1.52-3.87-1.6-1.44-.08-2.93.23-4.1-.47s-2.03-2.42-3.12-3.83c-1.09-1.41-2.42-2.5-3.79-3.32-1.37-.82-2.77-1.37-3.87-1.87-1.09-.51-1.87-.98-2.34-2.23-.47-1.25-.62-3.28-1.13-4.33-.51-1.05-1.37-1.13-2.26-.9s-1.84.78-2.81,1.02c-.98.23-1.99.16-3.05-.27-1.05-.43-2.15-1.21-3.59-.23Z"/>
    <path class="cls-2" d="M133.22,452.96c15.35,13.23,48,38.8,64.8,51.92,16.8,13.11,17.74,13.77,18.93,13.47,1.19-.3,2.63-1.57,2.16-1.9-.47-.33-2.85.28-18.87-12.51-16.01-12.78-45.66-38.96-61.01-52.19-15.35-13.23-16.41-13.52-17.91-13.22-1.5.3-3.45,1.2,11.9,14.43Z"/>
    <path class="cls-3" d="M5.67,295.78c-1.15.69-2.04,1.61-1.9,2.74.19,1.59,2.41,3.62,5.21,5.06,2.8,1.45,6.17,2.31,8.2,2.99,2.02.68,2.7,1.16,2.7,2.12s-.68,2.41-1.11,3.37c-.43.96-.63,1.45.53,2.51,1.16,1.06,3.66,2.7,5.3,3.47,1.64.77,2.41.67,2.46-.63.05-1.3-.63-3.81-.43-5.54.19-1.74,1.25-2.7,2.36-2.75s2.27.82,2.51,1.78c.24.96-.43,2.02.05,3.42s2.12,3.13,4.77,3.91c2.65.77,6.32.58,7.95,1.3,1.49.66,1.31,2.07,1.08,4.13"/>
    <path class="cls-2" d="M123.71,475.72c-1.68-.55-3.09-.23-4.8.27-1.72.51-3.75,1.21-5.27,2.5-1.52,1.29-2.54,3.16-3.28,5.04-.74,1.87-1.21,3.75-2.3,5.43s-2.81,3.16-3.63,4.41c-.82,1.25-.74,2.27-.51,3.63s.62,3.08,1.52,4.57c.9,1.48,2.3,2.73,4.1,3.24,1.8.51,3.98.27,5.94-.51,1.95-.78,3.67-2.11,4.92-2.38,1.25-.27,2.03.51,3.32,1.13,1.29.62,3.08,1.09,5.51.55,2.42-.55,5.47-2.11,7.77-3.71,2.3-1.6,3.87-3.24,5.19-4.45,1.33-1.21,2.42-1.99,2.42-3.91s-1.09-4.96-3.36-7.03c-2.26-2.07-5.7-3.16-7.89-3.91-2.19-.74-3.12-1.13-4.57-2.03s-3.4-2.3-5.08-2.85Z"/>
    <path class="cls-2" d="M47.4,469.43c1.44-1.29,4.18-1.68,6.48-2.26,2.3-.59,4.18-1.37,6.13-1.87,1.95-.51,3.98-.74,5.82-.31s3.48,1.52,3.94,3.55c.47,2.03-.23,5-1.05,7.54s-1.76,4.65-3.24,5.86c-1.48,1.21-3.51,1.52-4.65,2.11-1.13.59-1.37,1.44-2.11,2.62-.74,1.17-1.99,2.66-3.67,2.97s-3.79-.55-5.78-1.6c-1.99-1.05-3.87-2.3-4.8-3.59-.94-1.29-.94-2.62-.86-3.79.08-1.17.23-2.19.59-3.09s.9-1.68,1.25-3.16.51-3.67,1.95-4.96Z"/>
  </g>
  <g id="prato_senza_erba">
    <path class="cls-4" d="M211.92,331.47c-1.69,1.06-1.69,3.09-2.31,4.53s-1.88,2.31-2.99,2.75-2.07.43-2.36,1.06c-.29.63.1,1.88.34,2.94.24,1.06.34,1.93-.39,2.94-.72,1.01-2.27,2.17-2.65,3.42-.39,1.25.39,2.6.72,3.71.34,1.11.24,1.98.68,3.28s1.4,3.04,2.41,4.97c1.01,1.93,2.07,4.05,3.04,5.74.96,1.69,1.83,2.94,3.86,3.95s5.21,1.78,7.47,2.8c2.27,1.01,3.62,2.27,5.5,2.65,1.88.39,4.29-.1,7.71-1.16s7.86-2.7,10.8-4.05,4.39-2.41,5.4-3.62c1.01-1.21,1.59-2.56,1.98-4.48.39-1.93.58-4.44.77-7.18.19-2.75.39-5.74-.19-7.81-.58-2.07-1.93-3.23-3.57-4.29-1.64-1.06-3.57-2.02-4.82-3.23-1.25-1.21-1.83-2.65-1.98-4.1s.14-2.89.67-3.62,1.3-.72-.39-.92c-1.69-.19-5.83-.58-9.79-.87-3.95-.29-7.71-.48-11.28-.53s-6.94.05-8.63,1.11Z"/>
    <path class="cls-4" d="M183.37,385.56c-.54,1.11-.03,2.25.03,3.38s-.32,2.28-.41,3.26.09,1.8.7,2.63c.6.82,1.61,1.64,1.87,2.47.25.82-.25,1.64-.73,2.63-.47.98-.92,2.12-1.08,2.88s-.03,1.14.16,1.33c.19.19.44.19.76.19s.7,0,1.17.06c.47.06,1.04.19,1.61.41.57.22,1.14.54,1.77.95.63.41,1.33.92,2.09,1.68s1.58,1.77,2.18,2.75c.6.98.98,1.93,1.8,2.78.82.85,2.09,1.61,3.29,1.99,1.2.38,2.34.38,3.51.44,1.17.06,2.37.19,4.37.44s4.78.63,6.64.7c1.87.06,2.82-.19,3.76-.6.95-.41,1.9-.98,2.66-1.27s1.33-.28,1.93-1.01c.6-.73,1.23-2.18,1.83-3.19s1.17-1.58,2.09-2.63c.92-1.04,2.18-2.56,2.97-3.86.79-1.3,1.11-2.37,1.68-3.8.57-1.42,1.39-3.19,1.3-4.33s-1.11-1.64-1.46-2.72c-.35-1.08-.03-2.72-.06-4.02-.03-1.3-.41-2.25-1.2-3.04s-1.99-1.42-3.42-2.25c-1.42-.82-3.07-1.83-4.74-2.69-1.68-.85-3.38-1.55-5.35-2.4-1.96-.85-4.18-1.87-6.07-2.28s-3.48-.22-4.68.09-2.02.76-2.78.85-1.46-.16-2.75-.35-3.19-.32-5.03.03c-1.83.35-3.61,1.17-4.71,2.12s-1.55,2.02-2.56,3.1c-1.01,1.08-2.59,2.15-3.13,3.26Z"/>
    <path class="cls-4" d="M264.57,211.03c-1.64.51-2.19,1.29-3.16,1.8-.98.51-2.38.74-3.48,1.02-1.09.27-1.87.59-2.07,1.33-.2.74.2,1.91.62,3.01.43,1.09.9,2.11,1.72,3.24.82,1.13,1.99,2.38,3.12,2.23,1.13-.16,2.23-1.72,3.28-2.23,1.05-.51,2.07.04,2.81.74.74.7,1.21,1.56,2.15,1.87.94.31,2.34.08,3.51.23,1.17.16,2.11.7,3.24,1.48,1.13.78,2.46,1.8,3.08,3.01.62,1.21.55,2.62.31,4.06s-.62,2.93-.86,4.06c-.23,1.13-.31,1.91-.12,2.3.2.39.66.39,1.68-.62,1.02-1.02,2.58-3.05,4.02-4.14,1.44-1.09,2.77-1.25,3.87-1.05,1.09.2,1.95.74,2.62,1.87s1.13,2.85,1.8,3.51,1.52.27,2.3-.9c.78-1.17,1.48-3.12,2.19-3.87.7-.74,1.41-.27,2.23.55.82.82,1.76,1.99,3.4,1.64,1.64-.35,3.98-2.23,5.86-3.2,1.87-.98,3.28-1.05,3.98-2.11.7-1.05.7-3.09.98-4.88.27-1.8.82-3.36,1.87-5,1.05-1.64,2.62-3.36,4.26-4.06,1.64-.7,3.36-.39,5.39.43,2.03.82,4.37,2.15,6.64,3.24s4.45,1.95,5.9,2.97c1.44,1.02,2.15,2.19,3.4,1.99,1.25-.2,3.05-1.76,3.01-3.16-.03-1.4-1.89-2.64-2.2-4.84s.93-5.37,1.73-7.39c.8-2.03,1.15-2.93.21-3.42-.94-.49-3.18-.58-4.3,0-1.12.58-1.12,1.83-2.15,3-1.03,1.17-3.1,2.25-4.42,2.31s-1.9-.91-2.59-1.68c-.68-.78-1.47-1.36-2.05-2.33-.58-.96-.95-2.31-2.2-3.17-1.25-.86-3.38-1.24-5.81-1.39-2.43-.15-5.17-.07-7.04-.07s-2.89-.08-4.74.81c-1.85.89-4.54,2.75-7.2,3.16-2.66.41-5.29-.62-7.96-1.67-2.67-1.05-5.37-2.11-7.83-3.08-2.47-.97-4.71-1.85-6.28-1.46-1.57.39-2.48,2.06-3.33,3.24-.85,1.18-1.63,1.89-2.33,2.75-.7.86-1.33,1.87-3.01,2.5-1.68.62-4.41.86-6.05,1.37Z"/>
    <path class="cls-4" d="M130.4,111.17c-.1,1.59.48,2.65.72,3.52.24.87.14,1.54-.34,2.75-.48,1.21-1.35,2.94-2.7,4.05-1.35,1.11-3.18,1.59-4.05,2.6-.87,1.01-.77,2.56-.29,3.33.48.77,1.35.77,2.51.82s2.6.14,3.91.29c1.3.14,2.46.34,3.42,1.11s1.74,2.12,2.65,2.7c.92.58,1.98.39,3.04-1.54s2.12-5.59,3.66-7.91c1.54-2.31,3.57-3.28,5.54-3.71s3.91-.34,5.54-.29c1.64.05,2.99.05,4.15-1.01,1.16-1.06,2.12-3.18,3.18-4.72,1.06-1.54,2.22-2.51,3.42-3.47,1.21-.96,2.46-1.93,3.33-2.41s1.35-.48,2.65.67c1.3,1.16,3.42,3.47,4.15,5.54.72,2.07.05,3.9.43,5.3.39,1.4,1.83,2.36,3.18,1.83s2.6-2.56,3.76-3.37c1.16-.82,2.22-.43,3.23-.24,1.01.19,1.98.19,4-.48,2.02-.68,5.11-2.02,6.75-3.47,1.64-1.45,1.83-2.99.48-3.57-1.35-.58-4.24-.19-7.14,0-2.89.19-5.79.19-7.14-.63-1.35-.82-1.16-2.46.1-3.76,1.25-1.3,3.57-2.27,5.11-2.99,1.54-.72,2.31-1.21,1.4-2.22s-3.52-2.56-5.88-2.6c-2.36-.05-4.48,1.4-5.69,1.74-1.21.34-1.49-.43-2.27-.58-.77-.14-2.02.34-3.71.1-1.69-.24-3.81-1.21-5.83-2.27s-3.95-2.22-4.77-3.52c-.82-1.3-.53-2.75-.34-3.76s.29-1.59-.92-1.45c-1.21.14-3.71,1.01-5.79,1.11-2.07.1-3.71-.58-5.54-1.11-1.83-.53-3.86-.92-5.06-.29-1.21.63-1.59,2.27-2.65,3.37-1.06,1.11-2.8,1.69-3.42,2.89-.63,1.21-.14,3.04-.43,4.15-.29,1.11-1.35,1.49-2.99,1.3-1.64-.19-3.86-.96-5.54-1.3-1.69-.34-2.84-.24-3.42.29s-.58,1.49.14,2.36c.72.87,2.17,1.64,3.47,2.46,1.3.82,2.46,1.69,2.65,3.18.19,1.49-.58,3.62-.68,5.21Z"/>
    <line class="cls-5" x1="199.29" y1="67.69" x2="202.62" y2="65.27"/>
    <path class="cls-4" d="M202.62,65.27c0-8.21,1.18-8.97,2.47-10.26,1.29-1.3,2.68-3.13,3.06-4.55.38-1.42-.25-2.44-.57-4.33-.32-1.9-.32-4.68.22-6.55.54-1.87,1.61-2.82,1.55-3.73-.06-.92-1.27-1.8-2.18-1.99s-1.55.32-2.26.82c-.71.51-1.5,1.01-2.57.47-1.08-.54-2.44-2.12-3.5-3-1.06-.89-1.82-1.08-2.52-.47s-1.33,1.99-2.59,2.4c-1.27.41-3.16-.16-4.55-.73-1.39-.57-2.28-1.14-3.74-1.02-1.46.12-3.49.92-4.8.92-1.31,0-1.9-.82-3.64-.97-1.74-.15-4.62.36-5.59.34-.97-.02-.03-.58.06-1.18s-.66-1.25-1.13-1.48c-.47-.23-.66-.04-.75.82-.09.85-.09,2.37.85,4.46l-.95-2.09c2.47,4.18,1.99,5.6,2.23,7.07s1.19,2.99,2.29,4.35c1.11,1.36,2.37,2.56,3.19,3.7.82,1.14,1.2,2.21,1.61,3.57.41,1.36.85,3,1.61,3.7.76.7,1.83.44,3.35.6,1.52.16,3.48.73,4.78,1.71,1.3.98,1.93,2.37,3.53,3.54,1.6,1.17,4.16,2.12,7.2,6.29"/>
    <path class="cls-4" d="M129.07,47.26c-1.52-.25-3.04-1.2-4.18-1.55-1.14-.35-1.9-.09-2.15.66s0,2.02.13,3.76c.13,1.74.13,3.95.09,5.57-.03,1.61-.09,2.63-.54,4.24-.44,1.61-1.27,3.83-2.02,5.79-.76,1.96-1.46,3.67-1.14,4.84.32,1.17,1.64,1.8,2.56,2.09.92.28,1.42.22,2.44-1.14s2.53-4.02,3.86-5.35c1.33-1.33,2.47-1.33,4.4-1.27,1.93.06,4.65.19,6.67.32,2.02.13,3.35.25,5.44-.13,2.09-.38,4.93-1.27,6.14-.89,1.2.38.76,2.02.76,2.02,0,0,.44-1.64,1.52-2.4,1.08-.76,2.78-.63,3.64-.03s.85,1.68,1.01,2.59c.16.92.47,1.68,1.04,2.98.57,1.3,1.39,3.14,2.37,3.71s2.11-.12,2.37-1.6c.25-1.48-.38-3.74-.22-5.31.16-1.57,1.11-2.46,2.69-2.41,1.58.05,3.8,1.04,5.54,1.06,1.74.02,3.01-.93,4.02-1.91,1.01-.98,1.77-1.99,1.11-3.07-.66-1.08-2.75-2.21-4.52-3.57-1.77-1.36-3.23-2.94-4.71-3.48-1.49-.54-3-.03-4.68.19-1.68.22-3.51.16-4.68-.54-1.17-.7-1.68-2.02-2.72-2.28s-2.63.57-3.89.47c-1.27-.09-2.21-1.11-3.89-1.49-1.68-.38-4.08-.13-5.69-.19-1.61-.06-2.44-.44-3.67-.89-1.23-.44-2.88-.95-4.46-.98-1.58-.03-3.1.41-4.62.16Z"/>
    <path class="cls-4" d="M75.05,116.04c.58,5.5,3.47,7.67,4.87,9.23,1.4,1.57,1.3,2.53,1.21,3.64-.1,1.11-.19,2.36-.39,3.23-.19.87-.48,1.35-.34,2.56.14,1.21.72,3.13.53,4.72-.19,1.59-1.16,2.84-1.06,4,.1,1.16,1.25,2.22,1.78,3.37.53,1.16.43,2.41.89,2.96.46.55,1.47.41,4.36-1.33,3.47-3.47,6.33-4.49,6.81-4.66.48-.17-1.43.51-2.96-.45-1.53-.96-2.69-3.56-3.27-6.22s-.58-5.35-.39-6.75c.19-1.4.58-1.49,1.78-1.45,1.21.05,3.23.24,4.97.34,1.74.1,3.18.1,4.58-.48s2.75-1.74,3.86-3.62,1.98-4.48,2.02-6.22c.05-1.74-.72-2.6-1.69-3.33-.96-.72-2.12-1.3-3.52-1.01-1.4.29-3.04,1.45-5.11,1.98s-4.58.43-5.98.58-1.69.53-2.46.72c-.77.19-2.02.19-3.01-.6-.99-.8-1.71-2.39-7.5-1.23Z"/>
    <path class="cls-4" d="M377.25,81.68c-1.55,2.26.6,4.76,4.11,5.65,3.51.89,8.39.18,11.01-.36,2.62-.54,2.98-.89,3.39-1.49s.89-1.43,1.9-2.98c1.01-1.55,2.56-3.81,3.33-5.36.77-1.55.77-2.38.54-3.09-.24-.71-.71-1.31-2.8-1.07-2.08.24-5.77,1.31-10.24,2.86-4.46,1.55-9.7,3.57-11.25,5.83Z"/>
    <path class="cls-4" d="M419.63,134.65c9.66,1.34,10.42-2.77,10.25-7.84-.17-5.08-1.28-11.12-2.43-14.49-1.15-3.38-2.34-4.09-2.93-5.22-.6-1.13-.6-2.68.48-4.46,1.07-1.79,3.21-3.81,3.93-5.48.71-1.67,0-2.98-1.7-3.63-1.7-.65-4.37-.65-7.95,5.06-.71,6.79-1.96,7.5-2.59,8.51-.62,1.01-.62,2.32-1.1,3.81-.48,1.49-1.43,3.15-1.43,4.58s.95,2.62.89,4.73-1.13,5.15,4.58,14.43Z"/>
    <path class="cls-4" d="M44.83,218.95c-1.14,1.3-1.33,2.5-1.08,3.26s.95,1.08,1.83,1.3c.89.22,1.96.35,3.29,1.11,1.33.76,2.91,2.15,4.68,3.64,1.77,1.49,3.73,3.07,4.46,4.62.73,1.55.22,3.07-.35,4.14-.57,1.08-1.2,1.71-.09,3.16s3.95,3.73,6.04,5.25c2.09,1.52,3.42,2.28,4.46,3.13s1.8,1.8,3.04,2.59c1.23.79,2.94,1.42,4.02,1.2,1.08-.22,1.52-1.3,2.18-1.83.66-.54,1.55-.54,2.56-1.17,1.01-.63,2.15-1.9,3.51-2.66s2.94-1.01,4.62-1.14c1.68-.13,3.45-.13,4.27-.66.82-.54.7-1.61.13-2.78-.57-1.17-1.58-2.44-1.71-3.61-.13-1.17.63-2.25,1.46-3.42.82-1.17,1.71-2.44.76-3.67-.95-1.23-3.73-2.44-5.85-3.61-2.12-1.17-3.57-2.31-4.46-4.4-.89-2.09-1.2-5.12-.73-7.91.47-2.78,1.74-5.31,1.33-6.52s-2.5-1.08-3.83-.76c-1.33.32-1.9.82-2.44,1.87-.54,1.04-1.04,2.63-1.87,4.05-.82,1.42-1.96,2.69-3.19,3.86-1.23,1.17-2.56,2.25-4.37,2.85s-4.08.73-5.44.19c-1.36-.54-1.8-1.74-2.66-2.34s-2.12-.6-3.73-1.14-3.57-1.61-4.37-2.66-.41-2.06-.03-2.97c.38-.92.76-1.74.32-2.21-.44-.47-1.71-.6-2.47-.47-.76.13-1.01.51-.76,1.49.25.98,1.01,2.56.35,4.05s-2.75,2.88-3.89,4.18Z"/>
    <path class="cls-4" d="M178.46,333.46c.82-.1,1.68-.18,2.42-.32,1.68-.32,2.76-.97,3.03-1.46.27-.49-.27-.83-1.95-1.01-1.68-.18-4.51-.22-7.73-.14-3.23.08-6.86.28-9.38.26-3.83-.04-5.07-.6-7.74-.82,0,4.51.02,9.01.02,13.52h-7.74c.52,3.16.45,3.96.25,4.76-.3,1.2-.91,2.43-1.53,3.46-.62,1.03-1.27,1.87-1.37,2.46s.33.92.96,1.33,1.44.87,1.84,1.55c.41.67.41,1.55.1,2.42s-.91,1.75-1.21,2.66c-.3.91-.3,1.85,0,2.52.3.67.91,1.08,1.51,1.6s1.21,1.16,1.9,1.51c.69.35,1.45.42,2.14.18.69-.24,1.29-.77,2.08-1.41.79-.64,1.76-1.38,2.71-1.71s1.85-.27,2.42.07.81.94,1.48,1.24c.67.3,1.78.3,2.82.39,1.04.08,2.02.25,3.03.18,1.01-.07,2.05-.37,2.57-.81.52-.44.52-1.01.25-1.8-.27-.79-.81-1.8-1.12-2.96-.32-1.16-.41-2.47-.05-3.67.25-.83.73-1.61,2.99-3.36h-2.37v-20.64h7.67Z"/>
  </g>
  <g id="edifici_renzo_piano">
    <rect class="cls-8" x="235.61" y="294.84" width="11.48" height="7.03"/>
    <rect class="cls-12" x="235.15" y="317.1" width="12.65" height="6.33"/>
    <rect class="cls-10" x="259.28" y="339.83" width="14.29" height="28.12"/>
    <path class="cls-7" d="M209.09,352.88c-.52,8.6,6.02,15.99,14.61,16.51,8.6.52,15.99-6.02,16.51-14.61.52-8.6-6.02-15.99-14.61-16.51-8.59-.52-15.99,6.02-16.51,14.61Z"/>
    <rect class="cls-10" x="302.5" y="375.13" width="14.29" height="42.16"/>
    <path class="cls-6" d="M190.49,393.88c-1.36,8.07,4.08,15.72,12.15,17.08,8.07,1.36,15.72-4.08,17.08-12.15,1.36-8.07-4.08-15.72-12.15-17.08s-15.72,4.08-17.08,12.15Z"/>
    <rect x="148" y="329.91" width="9.13" height="13.58"/>
    <rect x="170.79" y="333.46" width="7.67" height="20.64"/>
  </g>
  <g id="edifici_ricerca_e_sviluppo">
    <rect class="cls-10" x="233.97" y="261.81" width="14.76" height="27.41"/>
    <rect class="cls-13" x="187.35" y="261.34" width="15.93" height="27.88"/>
    <rect class="cls-13" x="208.9" y="261.34" width="15.46" height="28.35"/>
    <rect class="cls-10" x="259.28" y="261.57" width="14.29" height="27.88"/>
    <rect class="cls-10" x="302.63" y="261.81" width="14.06" height="27.41"/>
    <rect class="cls-10" x="324.18" y="261.57" width="14.76" height="27.65"/>
    <rect class="cls-10" x="49.11" y="310.54" width="14.76" height="13.12"/>
    <rect class="cls-10" x="70.66" y="295.78" width="15.23" height="27.88"/>
    <rect class="cls-10" x="92.45" y="296.01" width="14.76" height="27.88"/>
    <rect class="cls-10" x="114.01" y="296.01" width="15.46" height="27.88"/>
    <rect class="cls-10" x="280.86" y="261.81" width="14.29" height="27.65"/>
    <rect class="cls-13" x="324.18" y="296.25" width="14.76" height="28.12"/>
    <rect class="cls-13" x="324.18" y="296.25" width="14.76" height="28.12"/>
    <polygon class="cls-13" points="302.63 324.36 316.68 324.36 316.68 296.48 302.59 296.48 302.63 324.36"/>
    <rect class="cls-10" x="259.45" y="296.37" width="14.29" height="27.88"/>
    <rect class="cls-10" x="281.03" y="296.6" width="14.29" height="27.65"/>
  </g>
  <g id="didattica">
    <polygon class="cls-14" points="253.66 237.67 253.66 242.12 258.11 242.12 258.11 237.91 253.66 237.67"/>
    <polygon class="cls-14" points="187.82 237.2 187.82 252.9 203.28 253.14 203.28 245.17 207.73 245.17 207.73 253.14 223.66 253.14 223.66 237.67 187.82 237.2"/>
    <polygon class="cls-14" points="239.83 237.44 239.83 247.28 247.56 247.28 247.56 237.67 239.83 237.44"/>
    <rect class="cls-14" x="142.36" y="279.61" width="27.88" height="6.09"/>
    <rect class="cls-14" x="217.1" y="295.78" width="6.56" height="25.77"/>
    <rect class="cls-14" x="206.09" y="295.31" width="8.43" height="4.92"/>
    <polygon class="cls-14" points="202.34 315.46 202.34 295.08 188.05 295.08 188.05 321.79 202.34 321.79 214.06 321.79 214.06 315.46 202.34 315.46"/>
  </g>
  <g id="start_up">
    <rect class="cls-11" x="141.19" y="261.81" width="14.76" height="12.18"/>
    <rect class="cls-11" x="163.21" y="261.57" width="14.53" height="12.65"/>
    <rect class="cls-11" x="141.42" y="295.78" width="13.82" height="27.65"/>
    <rect class="cls-11" x="162.75" y="296.25" width="14.53" height="27.18"/>
    <rect class="cls-9" x="324.18" y="339.6" width="14.76" height="28.12"/>
    <rect class="cls-9" x="280.86" y="339.83" width="14.29" height="28.12"/>
    <rect class="cls-9" x="302.5" y="339.83" width="14.29" height="28.12"/>
  </g>
  <g id="edifici_non_inneriti_al_progetto">
    <polygon class="cls-1" points="156.56 530.3 149.13 543.31 228.29 586.95 231.9 584.34 218.7 562.92 156.56 530.3"/>
    <polygon class="cls-1" points="365.68 386.29 367.28 379.89 365.68 379.23 364.3 385.39 365.68 386.29"/>
    <polygon class="cls-1" points="380.84 335.53 376.93 336.16 367.03 355.25 369.26 356.01 370.66 352.88 375.29 353.99 380.84 335.53"/>
    <polygon class="cls-1" points="63.28 381.49 66.6 378.16 68.32 379.17 71.45 376.25 70.44 375.14 78.91 367.17 82.74 370.8 84.56 369.19 89.7 374.03 83.95 380.28 81.63 378.47 76.89 383 73.16 379.07 70.44 382 78.71 390.27 74.98 393.9 63.28 381.49"/>
    <polygon class="cls-1" points="154.39 462.19 195.86 498.42 205.32 487.59 190.38 475.26 192.99 472.02 219.14 494.94 207.69 508.13 214.16 513.49 225.49 501.16 225.37 499.54 225.99 498.8 227.36 499.17 230.85 494.81 224.5 488.96 225.99 486.59 222.13 483.11 219.89 484.73 201.84 468.91 203.08 466.92 199.35 463.31 197.1 464.8 184.28 454.47 178.92 460.44 190.38 470.28 188.39 472.77 162.99 451.48 154.39 462.19"/>
    <polygon class="cls-1" points="178.67 439.77 189.88 449.86 194.24 445.38 198.97 449.61 195.11 453.72 201.46 459.82 205.57 454.84 210.05 459.32 206.44 463.93 212.54 469.78 217.28 465.05 221.76 469.41 217.28 474.02 224 479.87 228.48 475.01 232.84 479 235.95 475.51 231.6 471.28 233.59 468.66 227.11 463.43 224.37 466.17 220.26 461.19 221.88 458.95 215.66 453.47 213.42 455.84 211.42 453.97 215.78 449.36 248.53 461.44 228.98 483.6 235.46 489.83 261.98 459.07 185.27 432.05 178.67 439.77"/>
    <polygon class="cls-1" points="220.53 517.57 236.05 498.2 266.64 524.18 262.34 528.64 220.53 517.57"/>
    <polygon class="cls-1" points="244.05 488.82 273.56 514.03 278.48 508.5 272.49 502.5 269.56 505.27 265.41 500.81 267.41 498.35 283.32 512.8 273.87 522.79 285.71 533.25 311.38 504.04 299.7 494.66 287.7 508.5 285.64 506.71 291.23 499.81 293.61 501.69 296.96 497.82 294.36 495.77 295.67 494.26 265.21 466.82 261.08 470.76 259.36 469.85 251.57 478.33 255.97 482.14 252.87 485.73 249.8 483 244.05 488.82"/>
    <polygon class="cls-1" points="256.34 488.51 253.92 491.43 258.25 495.37 260.77 492.44 256.34 488.51"/>
    <polygon class="cls-1" points="215.93 646.28 254.84 675.89 273.06 652.36 233.96 622.37 215.93 646.28"/>
    <path class="cls-1" d="M143.46,604.3c-.85.56-1.1,1.76-1.22,2.68-.12.91-.12,1.54-.29,2.28-.17.75-.5,1.62-.68,2.43-.19.81-.23,1.56.25,2.3.48.75,1.47,1.49,2.47,1.64,1,.15,1.99-.31,2.86-.44.87-.12,1.62.08,2.55-.1.93-.19,2.05-.77,3.28-1.06,1.22-.29,2.55-.29,4.03-.12,1.47.17,3.09.5,4.42,1.16,1.33.66,2.37,1.66,3.32,1.91.95.25,1.83-.25,2.1-.91.27-.66-.06-1.49-2.22-2.95s-6.14-3.53-9.3-5.17c-3.15-1.64-5.48-2.84-7.37-3.49-1.89-.64-3.34-.73-4.19-.17Z"/>
    <path class="cls-1" d="M170.42,617.36c-.54.37-.54,1.25-.66,1.87-.12.62-.37,1-.46,1.58s0,1.37.37,2.08c.37.71,1.04,1.33,1.83,1.45.79.12,1.7-.25,3.49.27s4.44,1.93,7.31,3.22,5.94,2.45,8.03,3.49c2.1,1.04,3.22,1.95,4.38,2.39,1.16.44,2.37.39,2.95.02s.54-1.08-.56-1.85c-1.1-.77-3.26-1.6-6.23-3.2-2.97-1.6-6.74-3.96-9.46-5.58-2.72-1.62-4.38-2.49-5.58-3.34s-1.95-1.68-2.86-2.16c-.91-.48-1.99-.6-2.53-.23Z"/>
    <path class="cls-1" d="M166.37,626.2c-.81.29-1.02,1.08-.89,1.7s.58,1.08,1.41,1.41,2.03.54,2.86.77c.83.23,1.29.48,1.64.85.35.37.6.87.71,1.62.1.75.06,1.74.68,2.39s1.91.93,2.78.93,1.33-.29,1.76-.44c.44-.15.85-.15,1.64-.25.79-.1,1.95-.31,2.43-.79s.27-1.22-.87-2.05-3.22-1.74-5.13-2.76c-1.91-1.02-3.65-2.14-5.23-2.8-1.58-.66-2.99-.87-3.8-.58Z"/>
    <path class="cls-1" d="M203.89,636.47c-.89.35-.89,1.27-1,2.18-.1.91-.31,1.83.17,2.59.48.77,1.64,1.39,2.22,2.53s.58,2.8.21,4.05c-.37,1.25-1.12,2.08-1.6,2.74s-.68,1.16-1.06,1.93c-.37.77-.91,1.81-1.14,2.86-.23,1.06-.15,2.14.17,2.93s.85,1.29,1.2,1.54.52.25,1.02-.17c.5-.41,1.33-1.24,1.76-2.22.44-.98.48-2.1,1.1-3.15.62-1.06,1.83-2.05,2.78-3.78.95-1.72,1.66-4.17,1.99-6.52.33-2.35.29-4.59-.33-5.81s-1.83-1.43-3.32-1.64c-1.49-.21-3.28-.42-4.17-.06Z"/>
    <polygon class="cls-1" points="85.26 753.23 73.68 754.85 77.41 781.62 87.75 770.04 85.26 753.23"/>
    <polygon class="cls-1" points="88.37 753.11 89.99 767.43 106.68 749.75 88.37 753.11"/>
    <polygon class="cls-1" points="149.33 668.19 175.16 638.37 195.76 655.59 190.53 662.35 173.93 648.67 172.39 650.36 185.31 661.43 183 664.96 184.69 666.96 178.24 676.34 176.08 674.65 172.86 676.8 160.1 665.89 158.1 667.88 173.01 681.41 169.17 685.56 149.33 668.19"/>
    <polygon class="cls-1" points="136.46 651.85 134.58 655.69 138.83 659.61 142.43 654.13 136.46 651.85"/>
    <polygon class="cls-1" points="122.25 645.47 128.78 650.95 131.15 647.19 124.13 643.02 122.25 645.47"/>
    <polygon class="cls-1" points="164.73 636.4 151.49 659.85 152.64 660.75 165.79 645.06 169.47 638.53 164.73 636.4"/>
    <polygon class="cls-1" points="131.8 633.3 135.24 635.26 133.77 639.18 153.7 650.62 163.75 633.05 143.41 621.37 141.44 624.89 137.6 623.09 131.8 633.3"/>
    <polygon class="cls-1" points="205.91 619.41 210.76 622.02 226.83 594.75 221.22 591.64 213.75 604.34 216.62 606.83 214.5 610.32 211.39 609.2 205.91 619.41"/>
    <polygon class="cls-1" points="141.52 597.26 144.94 591.95 158.04 599.16 158.04 600.87 193.15 620.61 195.23 620.04 208.14 627.63 204.95 633.69 141.52 597.26"/>
    <polygon class="cls-1" points="179.26 604.16 202.38 617.51 220.06 585.75 197.05 572.79 179.26 604.16"/>
    <polygon class="cls-1" points="154.99 590.13 165.99 596.59 184.14 566.03 172.14 559.47 154.99 590.13"/>
    <polygon class="cls-1" points="118.37 570.27 141.89 583.65 159.57 552.13 136.05 539.37 118.37 570.27"/>
    <polygon class="cls-1" points="118.37 556.59 124.37 559.82 136.05 539.37 129.81 535.8 118.37 556.59"/>
    <polygon class="cls-1" points="190.92 531.55 200.18 546.7 203.49 548.62 207.4 546.44 195.88 527.65 190.92 531.55"/>
    <polygon class="cls-1" points="187.74 532.87 187.81 540.15 192.11 542.54 193.56 540.09 189.66 532.08 187.74 532.87"/>
    <polygon class="cls-1" points="135.36 509.07 141.25 512.91 142.51 511.85 143.3 512.52 143.23 513.51 151.11 518.67 154.48 515.63 159.78 521.12 177.58 502.85 158.32 485.19 156.54 487.17 156.47 489.42 145.35 501.13 145.42 502.99 144.29 502.99 143.63 503.38 143.63 504.38 142.11 504.57 140.65 503.32 135.36 509.07"/>
    <polygon class="cls-1" points="125.48 464.19 146.86 484.36 151.7 479.01 130.82 459.24 125.48 464.19"/>
    <polygon class="cls-1" points="107.82 462.35 110.54 469.2 111.65 468.7 113.16 475.26 129.9 457.61 125.06 453.67 117.8 461.44 112.56 457 107.82 462.35"/>
    <polygon class="cls-1" points="98.55 458.56 103.21 462.4 117.18 447.37 112.11 442.22 98.55 458.56"/>
    <polygon class="cls-1" points="103.21 462.4 105.23 464.28 111.36 458.35 108.23 457 103.21 462.4"/>
    <polygon class="cls-1" points="92.67 465.26 100.67 473.35 102.88 470.9 101.74 468.04 100.02 468.04 99.61 466.73 101.41 466.08 98.3 461.42 96.34 461.42 92.67 465.26"/>
    <polyline class="cls-1" points="117.18 447.37 115.24 449.45 122.34 456.58 125.06 453.67 117.31 447.37"/>
    <line class="cls-1" x1="116.21" y1="448.41" x2="117.18" y2="447.37"/>
    <polyline class="cls-1" points="101.08 443.94 99.45 441.9 101.33 439.12 99.53 438.06 98.88 439.77 90.38 448.68 94.3 451.13 91.77 454.4 85.07 451.21 101.41 433.07 106.82 437.84"/>
    <line class="cls-1" x1="101.08" y1="443.94" x2="106.82" y2="437.84"/>
    <polygon class="cls-1" points="102.95 441.9 94.3 451.13 101.08 455.37 108.54 446.53 102.95 441.9"/>
    <polygon class="cls-1" points="94.3 451.13 91.77 454.4 98.55 458.56 101.08 455.37 94.3 451.13"/>
    <polygon class="cls-1" points="112.11 442.22 106.82 437.84 102.95 441.9 108.54 446.53 112.11 442.22"/>
    <polygon class="cls-1" points="80.1 446.74 74.21 440.71 69.84 444.09 75.47 450.31 83.28 452.23 101.41 433.07 93.61 426.05 84.86 433.07 89.23 437.47 80.1 446.74"/>
    <path class="cls-1" d="M63.72,449.7c-.84.57-1.2,1.33-1.33,1.91s-.05.95.26,1.17c.31.22.86.27,1.63.41s1.78.35,3,1.02c1.21.67,2.63,1.78,3.68,2.42,1.05.64,1.73.8,2.14,1.08s.54.65,1.09,1.24c.54.59,1.5,1.38,2.66,1.46,1.16.08,2.52-.54,3.28-1.13.76-.59.93-1.13.2-1.92-.72-.79-2.33-1.82-3.54-2.78-1.21-.95-2.03-1.82-2.95-2.72-.93-.9-1.96-1.82-2.71-2.08-.75-.26-1.21.15-1.8.5-.59.35-1.29.65-1.66.33-.37-.33-.39-1.28-1.08-1.57-.68-.29-2.02.1-2.86.67Z"/>
    <polygon class="cls-1" points="42.07 451.84 44.29 463.34 62.75 460.11 61.14 448.41 42.07 451.84"/>
    <polygon class="cls-1" points="83.25 469.51 55.35 500.07 46.43 491.72 41.69 495.89 51.75 504.24 47.19 508.61 55.92 517.53 52.13 520.94 61.62 531 102.42 486.59 83.25 469.51"/>
    <polygon class="cls-1" points="75.85 532.71 101.47 506.33 110.77 514.68 90.84 547.89 75.85 532.71"/>
    <polygon class="cls-1" points="91.98 551.69 99.76 555.67 102.61 549.6 101.85 548.65 101.85 545.81 111.53 552.26 113.62 548.08 108.11 544.67 121.59 518.29 114.19 514.68 93.17 547.02 93.5 548.94 91.98 551.69"/>
    <polygon class="cls-1" points="70.47 553.9 78.02 560.58 80.66 557.41 73.25 550.79 70.47 553.9"/>
    <polygon class="cls-1" points="123.72 506.7 120.98 511.31 151.11 528.37 153.72 523.39 123.72 506.7"/>
    <polygon class="cls-1" points="351.45 387.43 364.16 392.37 365.68 386.29 360.18 382.69 362.45 376.61 357.33 373.96 351.45 387.43"/>
    <polygon class="cls-1" points="357.33 373.96 368.01 378.62 374.6 357.83 367.03 355.25 357.33 373.96"/>
    <polygon class="cls-1" points="234.69 615.76 280.35 650.04 316.17 604.23 270.66 570.72 234.69 615.76"/>
    <polygon class="cls-1" points="92.72 690.41 97.43 684.49 100.91 687.07 104.46 682.78 100.8 680.26 92.26 691 86.67 691.57 83.76 695.77 86.93 718.2 78.13 731.83 76.28 731.63 73.7 736.13 73.5 733.15 71.91 732.89 57.42 646.86 58.41 645.8 58.21 642.96 62.51 645.41 63.11 644.94 76.33 655.78 80.88 677.98 84.49 680.26 79.75 687.28 74.81 683.49 77.09 691.46 84.49 680.26 91.7 680.26 97.78 670.01 113.72 680.26 102.14 697.91 92.72 690.41"/>
    <polygon class="cls-1" points="143 448.79 142.56 449.74 148.17 454.22 160.12 440.65 136.34 419.73 133.97 420.72 132.48 420.72 128.74 425.2 136.84 433.05 131.36 438.65 139.2 446.62 140.33 446.32 143 448.79"/>
    <polygon class="cls-1" points="74.47 397.83 89.4 382.1 98.48 391.48 103.01 390.97 103.22 376.65 112.09 376.55 111.79 399.14 97.97 399.24 88.29 389.26 77.19 400.66 74.47 397.83"/>
    <polygon class="cls-1" points="77.19 400.66 78.7 402.12 81.99 398.47 80.51 397.25 77.19 400.66"/>
    <polygon class="cls-1" points="81.55 401.77 86.26 406.03 84.68 408.14 87.56 410.75 97.97 399.24 95.57 396.77 89.22 403.68 83.73 398.68 81.55 401.15 81.55 401.77"/>
    <polygon class="cls-1" points="92.77 404.99 96.65 410.12 97.72 409.48 99.08 410.71 103.78 407.01 103.62 402.88 98.16 402.62 95.58 404.99 93.78 403.88 92.77 404.99"/>
    <polygon class="cls-1" points="87.56 410.75 95.88 418.27 110.7 407.06 110.48 399.15 97.94 399.24 87.56 410.75"/>
  </g>
</svg>